# xmcd
#
# Track frame offsets: 
#        150
#        11062
#        25994
#        37151
#        56446
#        67628
#        79665
#        96302
#        112729
#        128719
#        144286
#        161413
#
# Disc length: 2355 seconds
#
# Revision: 0
# Processed by: cddbd v1.5.2PL0 Copyright (c) Steve Scherf et al.
# Submitted via: ExactAudioCopy v0.99pb4
#
DISCID=8e09310c
DTITLE=Foothill - Bluegrass - Foothill
DYEAR=2004
DGENRE=Bluegrass
TTITLE0=Way Down Deep
TTITLE1=Mountain High  Valley Low
TTITLE2=Still Inside My Soul
TTITLE3=Things That Endure
TTITLE4=Ride Me Down Easy
TTITLE5=Foggy Mountain Breakdown
TTITLE6=The Good Shepard
TTITLE7=Saints' Reunion
TTITLE8=Rebel's Last Request
TTITLE9=Sledd Ridin'
TTITLE10=Water's So Cold
TTITLE11=I'm Workin' On A Buildin'
EXTD=
EXTT0=
EXTT1=
EXTT2=
EXTT3=
EXTT4=
EXTT5=
EXTT6=
EXTT7=
EXTT8=
EXTT9=
EXTT10=
EXTT11=
PLAYORDER=
